<svg width="22" height="17" viewBox="0 0 22 17" fill="none" xmlns="http://www.w3.org/2000/svg">
<path d="M3.93206 0.785706C3.07958 0.785706 2.26201 1.12435 1.65922 1.72715C1.05642 2.32994 0.717773 3.14751 0.717773 3.99999V4.64285H21.2858V3.99999C21.2858 3.14751 20.9471 2.32994 20.3443 1.72715C19.7415 1.12435 18.924 0.785706 18.0715 0.785706H3.93206ZM0.717773 13V5.92856H21.2858V13C21.2858 13.8525 20.9471 14.67 20.3443 15.2728C19.7415 15.8756 18.924 16.2143 18.0715 16.2143H3.93292C3.08043 16.2143 2.26287 15.8756 1.66007 15.2728C1.05728 14.67 0.718631 13.8525 0.718631 13M14.6429 10.6428C14.4724 10.6428 14.3089 10.7106 14.1883 10.8311C14.0678 10.9517 14.0001 11.1152 14.0001 11.2857C14.0001 11.4562 14.0678 11.6197 14.1883 11.7403C14.3089 11.8608 14.4724 11.9286 14.6429 11.9286H17.6429C17.8134 11.9286 17.9769 11.8608 18.0975 11.7403C18.218 11.6197 18.2858 11.4562 18.2858 11.2857C18.2858 11.1152 18.218 10.9517 18.0975 10.8311C17.9769 10.7106 17.8134 10.6428 17.6429 10.6428H14.6429Z" fill="#007C66"/>
</svg>
