<svg width="22" height="22" viewBox="0 0 22 22" fill="none" xmlns="http://www.w3.org/2000/svg">
<path fill-rule="evenodd" clip-rule="evenodd" d="M7.625 0.5C7.47726 0.5 7.33097 0.529099 7.19448 0.585636C7.05799 0.642172 6.93397 0.725039 6.8295 0.829505C6.72504 0.933971 6.64217 1.05799 6.58564 1.19448C6.5291 1.33097 6.5 1.47726 6.5 1.625C6.5 1.77274 6.5291 1.91903 6.58564 2.05552C6.64217 2.19201 6.72504 2.31603 6.8295 2.4205C6.93397 2.52496 7.05799 2.60783 7.19448 2.66436C7.33097 2.7209 7.47726 2.75 7.625 2.75H14.375C14.5227 2.75 14.669 2.7209 14.8055 2.66436C14.942 2.60783 15.066 2.52496 15.1705 2.4205C15.275 2.31603 15.3578 2.19201 15.4144 2.05552C15.4709 1.91903 15.5 1.77274 15.5 1.625C15.5 1.47726 15.4709 1.33097 15.4144 1.19448C15.3578 1.05799 15.275 0.933971 15.1705 0.829505C15.066 0.725039 14.942 0.642172 14.8055 0.585636C14.669 0.529099 14.5227 0.5 14.375 0.5H7.625ZM4.625 4.25C4.32663 4.25 4.04048 4.36853 3.8295 4.5795C3.61853 4.79048 3.5 5.07663 3.5 5.375C3.5 5.67337 3.61853 5.95952 3.8295 6.1705C4.04048 6.38147 4.32663 6.5 4.625 6.5H17.375C17.6734 6.5 17.9595 6.38147 18.1705 6.1705C18.3815 5.95952 18.5 5.67337 18.5 5.375C18.5 5.07663 18.3815 4.79048 18.1705 4.5795C17.9595 4.36853 17.6734 4.25 17.375 4.25H4.625ZM2.75 10.25V19.25H19.25V10.25H2.75ZM2 8C1.60218 8 1.22064 8.15804 0.93934 8.43934C0.658035 8.72064 0.5 9.10218 0.5 9.5V20C0.5 20.3978 0.658035 20.7794 0.93934 21.0607C1.22064 21.342 1.60218 21.5 2 21.5H20C20.3978 21.5 20.7794 21.342 21.0607 21.0607C21.342 20.7794 21.5 20.3978 21.5 20V9.5C21.5 9.10218 21.342 8.72064 21.0607 8.43934C20.7794 8.15804 20.3978 8 20 8H2ZM14.42 13.745C14.5305 13.642 14.6192 13.5178 14.6807 13.3798C14.7422 13.2418 14.7752 13.0928 14.7779 12.9418C14.7806 12.7907 14.7528 12.6407 14.6962 12.5006C14.6396 12.3605 14.5554 12.2333 14.4486 12.1264C14.3417 12.0196 14.2145 11.9354 14.0744 11.8788C13.9343 11.8222 13.7843 11.7944 13.6332 11.7971C13.4822 11.7998 13.3332 11.8328 13.1952 11.8943C13.0572 11.9558 12.933 12.0445 12.83 12.155L9.875 15.11L9.17 14.405C9.06701 14.2945 8.94281 14.2058 8.80481 14.1443C8.66681 14.0828 8.51784 14.0498 8.36678 14.0471C8.21573 14.0444 8.06569 14.0722 7.9256 14.1288C7.78552 14.1854 7.65827 14.2696 7.55144 14.3764C7.44461 14.4833 7.3604 14.6105 7.30382 14.7506C7.24723 14.8907 7.21945 15.0407 7.22211 15.1918C7.22478 15.3428 7.25784 15.4918 7.31933 15.6298C7.38082 15.7678 7.46947 15.892 7.58 15.995L9.08 17.495C9.29094 17.7057 9.57687 17.824 9.875 17.824C10.1731 17.824 10.4591 17.7057 10.67 17.495L14.42 13.745Z" fill="black" fill-opacity="0.4"/>
</svg>