<svg width="21" height="21" viewBox="0 0 21 21" fill="none" xmlns="http://www.w3.org/2000/svg">
<path d="M20.45 9.99001C18.66 9.96001 16.75 8.04001 17.77 5.77001C14.79 6.77001 12 4.18001 12.58 1.21001C5.45 -0.289994 0.5 5.58001 0.5 11C0.5 16.52 4.98 21 10.5 21C16.39 21 21.04 15.92 20.45 9.99001ZM7 14C6.17 14 5.5 13.33 5.5 12.5C5.5 11.67 6.17 11 7 11C7.83 11 8.5 11.67 8.5 12.5C8.5 13.33 7.83 14 7 14ZM9 9.00001C8.17 9.00001 7.5 8.33001 7.5 7.50001C7.5 6.67001 8.17 6.00001 9 6.00001C9.83 6.00001 10.5 6.67001 10.5 7.50001C10.5 8.33001 9.83 9.00001 9 9.00001ZM13.5 15C12.95 15 12.5 14.55 12.5 14C12.5 13.45 12.95 13 13.5 13C14.05 13 14.5 13.45 14.5 14C14.5 14.55 14.05 15 13.5 15Z" fill="black" fill-opacity="0.4"/>
</svg>
