<svg width="21" height="24" viewBox="0 0 21 24" fill="none" xmlns="http://www.w3.org/2000/svg">
<path d="M10.3643 23.5201C4.82508 23.5201 0.318359 19.0133 0.318359 13.4737C0.318359 9.92838 2.13084 6.71381 5.16732 4.87541C5.32191 4.78178 5.49343 4.71951 5.67209 4.69216C5.85075 4.66481 6.03305 4.67291 6.20857 4.71601C6.3841 4.75911 6.54941 4.83637 6.69508 4.94336C6.84075 5.05035 6.96392 5.18498 7.05756 5.33957C7.1512 5.49417 7.21347 5.66569 7.24082 5.84435C7.26817 6.02301 7.26006 6.2053 7.21696 6.38083C7.17386 6.55635 7.09661 6.72167 6.98962 6.86734C6.88263 7.01301 6.74799 7.13618 6.5934 7.22982C4.3878 8.56518 3.07116 10.8999 3.07116 13.4737C3.07116 17.4956 6.34284 20.7673 10.3648 20.7673C14.3867 20.7673 17.6579 17.4956 17.6579 13.4737C17.6579 10.8577 16.2448 8.42646 13.9681 7.13046C13.8078 7.0428 13.6665 6.92409 13.5526 6.78126C13.4386 6.63842 13.3542 6.47432 13.3044 6.29853C13.2545 6.12274 13.2401 5.93878 13.2621 5.75738C13.2841 5.57599 13.342 5.40078 13.4324 5.242C13.5228 5.08321 13.644 4.94402 13.7888 4.83255C13.9336 4.72108 14.0991 4.63956 14.2757 4.59275C14.4523 4.54594 14.6365 4.53477 14.8175 4.55989C14.9985 4.58502 15.1727 4.64594 15.3299 4.7391C16.871 5.61871 18.1524 6.88973 19.0446 8.42357C19.9368 9.95742 20.408 11.6997 20.4107 13.4741C20.4102 19.0133 15.9044 23.5201 10.3643 23.5201ZM10.2596 13.3364C9.4998 13.3364 8.57964 12.7201 8.57964 11.9602V2.05158C8.57964 1.29174 9.4998 0.675415 10.2596 0.675415C11.0195 0.675415 11.9396 1.29174 11.9396 2.05158V11.9602C11.9396 12.7201 11.0195 13.3364 10.2596 13.3364Z" fill="black" fill-opacity="0.4"/>
</svg>
