<svg width="20" height="20" viewBox="0 0 20 20" fill="none" xmlns="http://www.w3.org/2000/svg">
<path d="M10 0C4.48 0 0 4.48 0 10C0 15.52 4.48 20 10 20C15.52 20 20 15.52 20 10C20 4.48 15.52 0 10 0ZM11 17H9V15H11V17ZM13.07 9.25L12.17 10.17C11.67 10.68 11.31 11.14 11.13 11.86C11.05 12.18 11 12.54 11 13H9V12.5C8.99959 11.9746 9.1027 11.4542 9.30345 10.9686C9.50421 10.483 9.79866 10.0418 10.17 9.67L11.41 8.41C11.87 7.97 12.09 7.31 11.96 6.61C11.8907 6.25212 11.7244 5.92017 11.4792 5.65036C11.2341 5.38055 10.9196 5.18325 10.57 5.08C9.46 4.77 8.43 5.4 8.1 6.35C7.98 6.72 7.67 7 7.28 7H6.98C6.4 7 6 6.44 6.16 5.88C6.37469 5.15059 6.79234 4.49725 7.36424 3.99618C7.93613 3.49511 8.6387 3.16696 9.39 3.05C10.91 2.81 12.36 3.6 13.26 4.85C14.44 6.48 14.09 8.23 13.07 9.25Z" fill="black" fill-opacity="0.4"/>
</svg>
