<svg width="21" height="18" viewBox="0 0 21 18" fill="none" xmlns="http://www.w3.org/2000/svg">
<path d="M0.230793 12.9024C0.0787932 12.7872 0.0995932 12.5968 0.0995932 12.5968L0.941193 2.59998C0.941193 2.59998 0.953993 2.48958 1.00359 2.43358C1.03399 2.39838 1.07239 2.34718 1.14759 2.31678C1.99079 1.97118 6.58439 -0.516819 8.89959 1.79998C9.28359 2.24478 9.69959 2.90078 9.69959 3.39998V11.8608C9.69959 11.8608 9.70919 12.04 9.54759 12.1488C9.48874 12.1823 9.42234 12.2003 9.35461 12.2012C9.28689 12.202 9.22006 12.1856 9.16039 12.1536C5.59879 10.3712 1.62279 12.4 0.619593 12.9328C0.558852 12.9664 0.489534 12.9813 0.420355 12.9756C0.351176 12.9699 0.285224 12.9439 0.230793 12.9008M20.3796 12.9312C19.3764 12.3984 15.4004 10.3712 11.8388 12.152C11.7791 12.184 11.7123 12.2004 11.6446 12.1996C11.5768 12.1987 11.5104 12.1807 11.4516 12.1472C11.29 12.04 11.2996 11.8608 11.2996 11.8608V3.39998C11.2996 2.90078 11.7156 2.24478 12.0996 1.79998C14.4132 -0.516819 18.9796 1.97118 19.8228 2.31678C19.8964 2.34718 19.9348 2.39838 19.9668 2.43358C20.0148 2.48958 20.0292 2.59998 20.0292 2.59998L20.898 12.5968C20.898 12.5968 20.9204 12.7872 20.77 12.9008C20.7154 12.9442 20.6492 12.9704 20.5797 12.9761C20.5101 12.9818 20.4405 12.9667 20.3796 12.9328M12.6836 17.2976C12.7574 17.2763 12.8232 17.2334 12.8724 17.1744C12.9116 17.1242 12.935 17.0635 12.9396 17C13.0196 15.4992 15.538 14.1008 20.3764 16.952C20.4996 17.0224 20.642 17.016 20.7636 16.928C20.9012 16.8272 20.8996 16.656 20.8996 16.656V15.7712C20.8996 15.7712 20.8996 15.648 20.8564 15.5808C20.8204 15.5225 20.7689 15.4754 20.7076 15.4448C17.4676 13.3408 13.37 12.408 11.2916 15.1888C11.2677 15.2473 11.2271 15.2974 11.1748 15.3328C11.0836 15.4048 10.9732 15.4 10.9732 15.4H10.0372C10.0372 15.4 9.92519 15.4048 9.83559 15.3344C9.7833 15.299 9.74266 15.2489 9.71879 15.1904C7.63879 12.408 3.54279 13.296 0.302793 15.4C0.241292 15.431 0.189736 15.4787 0.153993 15.5376C0.110793 15.6048 0.110793 15.7264 0.110793 15.7264V16.6128C0.110793 16.6128 0.109193 16.784 0.246793 16.8848C0.302042 16.9266 0.368407 16.9512 0.437571 16.9555C0.506734 16.9597 0.57562 16.9435 0.635593 16.9088C5.47239 14.0576 7.99239 15.5008 8.07079 17C8.0758 17.0637 8.09976 17.1244 8.13959 17.1744C8.18878 17.2334 8.25455 17.2763 8.32839 17.2976C9.48199 17.5856 11.1572 17.6976 12.6836 17.2976Z" fill="black" fill-opacity="0.4"/>
</svg>
