<svg width="20" height="23" viewBox="0 0 20 23" fill="none" xmlns="http://www.w3.org/2000/svg">
<path d="M16.8941 16.894L11.5916 22.198C11.3827 22.4071 11.1346 22.573 10.8615 22.6861C10.5884 22.7993 10.2957 22.8575 10.0001 22.8575C9.70452 22.8575 9.41182 22.7993 9.13875 22.6861C8.86567 22.573 8.61757 22.4071 8.40862 22.198L3.10612 16.894C2.20069 15.9887 1.48244 14.9139 0.992387 13.731C0.502333 12.548 0.25007 11.2802 0.25 9.99979C0.24993 8.71939 0.502056 7.45151 0.991981 6.26855C1.48191 5.08558 2.20004 4.0107 3.10537 3.10526C4.0107 2.19983 5.08551 1.48159 6.26842 0.991532C7.45133 0.501478 8.71918 0.249215 9.99959 0.249146C11.28 0.249076 12.5479 0.501201 13.7308 0.991126C14.9138 1.48105 15.9887 2.19918 16.8941 3.10451C17.7996 4.0099 18.5179 5.08479 19.008 6.2678C19.4981 7.45081 19.7503 8.71877 19.7503 9.99926C19.7503 11.2798 19.4981 12.5477 19.008 13.7307C18.5179 14.9137 17.7996 15.9886 16.8941 16.894ZM15.3041 4.69601C14.6076 3.99948 13.7807 3.44696 12.8706 3.07C11.9606 2.69304 10.9852 2.49903 10.0001 2.49903C9.01507 2.49903 8.03968 2.69304 7.12961 3.07C6.21955 3.44696 5.39265 3.99948 4.69612 4.69601C3.99959 5.39255 3.44707 6.21945 3.07011 7.12951C2.69315 8.03957 2.49913 9.01497 2.49913 10C2.49913 10.9851 2.69315 11.9605 3.07011 12.8705C3.44707 13.7806 3.99959 14.6075 4.69612 15.304L10.0001 20.605L15.3041 15.304C16.0008 14.6075 16.5534 13.7807 16.9304 12.8706C17.3075 11.9605 17.5015 10.9851 17.5015 10C17.5015 9.01493 17.3075 8.0395 16.9304 7.12943C16.5534 6.21936 16.0008 5.39248 15.3041 4.69601ZM10.0001 13C9.60061 13.009 9.20332 12.9382 8.83158 12.7916C8.45984 12.6449 8.12114 12.4255 7.83536 12.1462C7.54958 11.8669 7.32249 11.5333 7.16741 11.165C7.01233 10.7967 6.9324 10.4011 6.9323 10.0015C6.9322 9.60192 7.01193 9.20632 7.16683 8.83795C7.32172 8.46958 7.54865 8.13586 7.83429 7.8564C8.11993 7.57694 8.45852 7.35736 8.83019 7.21056C9.20185 7.06375 9.59911 6.99268 9.99862 7.00151C10.7825 7.01885 11.5284 7.34235 12.0767 7.90277C12.625 8.46319 12.9321 9.216 12.9323 10C12.9325 10.7841 12.6257 11.537 12.0777 12.0977C11.5297 12.6584 10.784 12.9823 10.0001 13Z" fill="#0084A7"/>
</svg>
