<svg width="17" height="20" viewBox="0 0 17 20" fill="none" xmlns="http://www.w3.org/2000/svg">
<path d="M0.489001 1.36301C0.552358 0.981437 0.749339 0.634833 1.04474 0.385139C1.34014 0.135445 1.71471 -0.00106524 2.1015 6.26014e-06C2.5035 6.26014e-06 2.8715 0.144006 3.1575 0.382506C3.46774 0.134773 3.85299 -0.000109254 4.25 6.26014e-06C4.663 6.26014e-06 5.043 0.143006 5.3425 0.382506C5.63851 0.134691 6.01245 -0.000756624 6.3985 6.26014e-06C6.78529 -0.00106524 7.15986 0.135445 7.45526 0.385139C7.75066 0.634833 7.94764 0.981437 8.011 1.36301C8.195 2.48901 8.5 4.56401 8.5 6.00001C8.5005 6.67537 8.33986 7.34112 8.03141 7.94193C7.72295 8.54275 7.2756 9.0613 6.7265 9.45451C6.4065 9.68451 6.25 9.96201 6.25 10.1995C6.25 10.2185 6.2505 10.2315 6.2515 10.2465C6.2955 10.7945 6.75 16.484 6.75 17.5C6.75 18.163 6.48661 18.7989 6.01777 19.2678C5.54893 19.7366 4.91304 20 4.25 20C3.58696 20 2.95108 19.7366 2.48223 19.2678C2.01339 18.7989 1.75 18.163 1.75 17.5C1.75 16.484 2.2045 10.7945 2.248 10.2465C2.24941 10.2309 2.25007 10.2152 2.25 10.1995C2.25 9.96201 2.094 9.68451 1.7735 9.45451C1.2244 9.0613 0.777048 8.54275 0.468596 7.94193C0.160144 7.34112 -0.000502242 6.67537 1.17954e-06 6.00001C1.17954e-06 4.56401 0.305001 2.48901 0.489001 1.36301ZM6 6.37501C6 6.54077 5.93415 6.69974 5.81694 6.81695C5.69973 6.93416 5.54076 7.00001 5.375 7.00001C5.20924 7.00001 5.05027 6.93416 4.93306 6.81695C4.81585 6.69974 4.75 6.54077 4.75 6.37501V1.75001C4.75 1.6174 4.69732 1.49022 4.60355 1.39645C4.50979 1.30268 4.38261 1.25001 4.25 1.25001C4.11739 1.25001 3.99022 1.30268 3.89645 1.39645C3.80268 1.49022 3.75 1.6174 3.75 1.75001V6.37501C3.75 6.54077 3.68415 6.69974 3.56694 6.81695C3.44973 6.93416 3.29076 7.00001 3.125 7.00001C2.95924 7.00001 2.80027 6.93416 2.68306 6.81695C2.56585 6.69974 2.5 6.54077 2.5 6.37501V1.64851C2.5 1.54282 2.45802 1.44146 2.38328 1.36672C2.30855 1.29199 2.20719 1.25001 2.1015 1.25001C1.9075 1.25001 1.7515 1.38651 1.7225 1.56501C1.5375 2.69851 1.25 4.67951 1.25 6.00001C1.24951 6.4769 1.36291 6.94702 1.58076 7.37125C1.79862 7.79548 2.11463 8.16155 2.5025 8.43901C3.0125 8.80501 3.5 9.41551 3.5 10.199C3.5 10.248 3.4985 10.294 3.4945 10.3465C3.4465 10.94 3 16.55 3 17.5C3 17.8315 3.1317 18.1495 3.36612 18.3839C3.60054 18.6183 3.91848 18.75 4.25 18.75C4.58152 18.75 4.89946 18.6183 5.13388 18.3839C5.3683 18.1495 5.5 17.8315 5.5 17.5C5.5 16.55 5.0535 10.94 5.006 10.3465C5.0022 10.2976 5.0002 10.2486 5 10.1995C5 9.41551 5.4875 8.80451 5.9975 8.43901C6.38538 8.16155 6.70138 7.79548 6.91924 7.37125C7.13709 6.94702 7.25049 6.4769 7.25 6.00001C7.25 4.67951 6.9625 2.69851 6.7775 1.56501C6.76206 1.47603 6.71544 1.39546 6.64599 1.33774C6.57654 1.28002 6.4888 1.24891 6.3985 1.25001C6.29281 1.25001 6.19145 1.29199 6.11672 1.36672C6.04199 1.44146 6 1.54282 6 1.64851V6.37501ZM14.75 1.26601V9.37501C14.75 9.67001 14.844 11.04 14.9475 12.5425L14.9545 12.6445C15.0945 14.6775 15.25 16.9455 15.25 17.5C15.25 17.8315 15.1183 18.1495 14.8839 18.3839C14.6495 18.6183 14.3315 18.75 14 18.75C13.6685 18.75 13.3505 18.6183 13.1161 18.3839C12.8817 18.1495 12.75 17.8315 12.75 17.5C12.75 17.009 12.8725 15.007 12.9985 13.09C13.0724 11.9682 13.1486 10.8465 13.227 9.72501L13.2485 9.41901C13.2545 9.33343 13.2429 9.24753 13.2143 9.16665C13.1857 9.08577 13.1408 9.01164 13.0823 8.94889C13.0238 8.88613 12.953 8.83609 12.8743 8.80187C12.7957 8.76765 12.7108 8.75 12.625 8.75001H11.125C11.0255 8.75001 10.9302 8.7105 10.8598 8.64017C10.7895 8.56985 10.75 8.47446 10.75 8.37501V5.62501C10.75 4.52958 11.1609 3.47401 11.9015 2.6669C12.6421 1.8598 13.6586 1.3599 14.75 1.26601ZM11.955 10L11.9235 10.456C11.8765 11.137 11.8135 12.056 11.7515 13.008C11.6275 14.895 11.5 16.9555 11.5 17.5C11.5 18.163 11.7634 18.7989 12.2322 19.2678C12.7011 19.7366 13.337 20 14 20C14.663 20 15.2989 19.7366 15.7678 19.2678C16.2366 18.7989 16.5 18.163 16.5 17.5C16.5 16.8955 16.3425 14.603 16.206 12.624L16.2015 12.559C16.0925 10.973 16 9.62001 16 9.37501V0.625006C16 0.280006 15.72 6.26014e-06 15.375 6.26014e-06H15.125C12.0185 6.26014e-06 9.5 2.51851 9.5 5.62501V8.37501C9.5 8.80598 9.67121 9.21931 9.97595 9.52406C10.2807 9.8288 10.694 10 11.125 10H11.955Z" fill="#F2F2F2"/>
</svg>
