<svg width="17" height="24" viewBox="0 0 17 24" fill="none" xmlns="http://www.w3.org/2000/svg">
<path d="M14.1952 3.1987H10.8587C10.2558 3.20062 10.2784 4.09918 10.8587 4.0939H14.1952V4.55326H10.8587C10.2592 4.54798 10.2813 5.44606 10.8587 5.44846H14.1952V5.9179H10.8587C10.2592 5.9179 10.2813 6.8155 10.8587 6.8131H14.1952V7.26046H10.8587C10.2717 7.26478 10.2813 8.16334 10.8587 8.16622H14.1952V8.61454H10.8587C10.2717 8.61262 10.2693 9.50974 10.8587 9.50974H14.1952V9.9571H10.8587C10.2717 9.95902 10.2693 10.8571 10.8587 10.8528H14.1952V11.3112H10.8587C10.2717 11.3059 10.2693 12.203 10.8587 12.2064H14.1952V12.6528H10.8587C10.2717 12.6523 10.2813 13.5513 10.8587 13.5485H14.1952V22.2648C14.1971 23.5929 16.2146 23.5689 16.2203 22.2648V1.86718C16.2146 1.26046 15.7163 0.49342 14.8965 0.49102H10.8587C10.2558 0.4915 10.2784 1.39006 10.8587 1.38622L14.1952 1.39726V1.84366H10.8587C10.2568 1.84078 10.2794 2.73886 10.8587 2.73934H14.1952V3.1987ZM10.6293 18.6518C10.6274 17.1014 9.02033 15.4339 7.10033 16.5139V10.584L5.85857 0.80398C5.83265 0.54526 5.61329 0.4843 5.46593 0.47998C5.31377 0.4843 5.00897 0.54526 4.97585 0.80398L3.74033 10.584V16.5139C1.82033 15.4339 0.265128 17.112 0.264648 18.6398C0.265128 19.9992 1.31153 21.1157 2.72753 21.1123C4.15409 21.1157 5.18033 19.8643 5.18033 18.6398V12.48H5.66033V18.6398C5.66033 20.0107 6.72209 21.0254 7.90193 21.0897C7.88225 21.8414 8.12753 22.9137 8.58929 23.339C9.13073 23.8382 9.77537 23.1998 9.51089 22.68C9.25553 22.1961 9.00497 21.9096 9.20849 20.8531C10.059 20.4595 10.6274 19.631 10.6293 18.6518ZM2.78225 19.8715C2.45858 19.8715 2.14816 19.7429 1.9193 19.5141C1.69043 19.2852 1.56185 18.9748 1.56185 18.6511C1.56185 18.3274 1.69043 18.017 1.9193 17.7881C2.14816 17.5593 2.45858 17.4307 2.78225 17.4307C3.44753 17.4345 3.98945 17.9803 3.99425 18.6518C3.99313 18.9736 3.86532 19.282 3.63848 19.5103C3.41165 19.7386 3.10404 19.8683 2.78225 19.8715ZM6.89633 18.6518C6.89745 18.3298 7.02528 18.0212 7.25217 17.7926C7.47907 17.5641 7.7868 17.4341 8.10881 17.4307C8.43085 17.4339 8.73868 17.5638 8.96555 17.7924C9.19242 18.021 9.32007 18.3298 9.32081 18.6518C9.32031 18.9738 9.1927 19.2826 8.96574 19.511C8.73877 19.7394 8.4308 19.869 8.10881 19.8715C7.78693 19.8685 7.4792 19.7388 7.25226 19.5105C7.02533 19.2822 6.89745 18.9737 6.89633 18.6518Z" fill="black" fill-opacity="0.4"/>
</svg>
