<svg width="114" height="44" viewBox="0 0 114 44" fill="none" xmlns="http://www.w3.org/2000/svg">
<path d="M3.46884 38.7932C3.5122 38.8131 3.55654 38.8332 3.60187 38.8537L2.58033 41.1189L3.60187 38.8537C4.40458 39.2157 5.33467 39.5933 6.39654 39.9853C7.32697 40.3288 8.52132 40.6446 10.0071 40.9162C11.4368 41.1775 12.8921 41.3088 14.3748 41.3088C18.652 41.3088 21.6323 40.4174 23.6157 38.9462C25.432 37.599 26.4536 35.5921 26.4537 32.4928L26.4536 32.4928C26.4536 31.0457 26.0872 29.887 25.418 28.9177L3.46884 38.7932ZM3.46884 38.7932L4.68778 36.7942M3.46884 38.7932L4.68778 36.7942M23.956 13.7455C23.0497 13.2725 21.8028 12.7736 20.3453 12.2483C18.2234 11.4837 16.11 11.0808 14.0179 11.0808C11.9036 11.0808 9.74058 11.5799 8.30179 13.2476C7.22933 14.4907 6.57328 15.9788 6.57328 17.6588C6.57328 19.7543 8.12911 21.0083 9.37301 21.6732C10.5946 22.3262 12.0289 22.8317 13.6285 23.2224L13.6287 23.2224C15.0023 23.5578 16.5257 24.0106 18.2019 24.5858C19.8355 25.1463 21.3219 25.7725 22.6663 26.4603C23.7385 27.0089 24.6534 27.8105 25.4179 28.9176L23.956 13.7455ZM23.956 13.7455L25.0477 11.9866C24.951 11.9279 24.8495 11.8668 24.7431 11.8035L24.7427 11.8032C24.0359 11.382 23.2 10.947 22.2271 10.5004L23.956 13.7455ZM4.68778 36.7942C5.64119 37.2589 7.0396 37.7728 8.75399 38.3345L8.75404 38.3345C10.9173 39.0432 13.0015 39.4272 14.9867 39.4272C17.1618 39.4272 19.2483 39.0346 20.8394 37.8482C22.5683 36.5591 23.2978 34.6541 23.2978 32.5943C23.2978 30.2256 21.8172 28.5663 19.9844 27.5353C18.3924 26.6398 16.5239 25.9325 14.4196 25.3836C12.5247 24.8893 10.6281 24.3204 8.72942 23.6765C7.11853 23.1302 5.80308 22.3101 4.73511 21.2287C3.87315 20.356 3.41733 19.2788 3.41733 17.8116C3.41733 14.9362 4.442 12.9443 6.4349 11.5029L6.43498 11.5028C8.65535 9.89684 11.3624 9.04614 14.6806 9.04614C16.1079 9.04614 17.5084 9.19029 18.8847 9.47758L4.68778 36.7942ZM18.8849 9.47762C20.3124 9.77573 21.4116 10.1261 22.227 10.5004L18.8849 9.47762Z" fill="#F2F2F2" stroke="#F2F2F2" stroke-width="5"/>
<path d="M44.5433 39.6302C47.2789 39.6302 49.5992 38.6878 51.3667 36.8705L53.2192 37.8042C52.4585 38.5798 51.5894 39.2414 50.607 39.7941C48.8346 40.7911 46.8323 41.3081 44.5433 41.3081C41.0219 41.3081 38.2033 40.1518 35.9121 37.8604L35.9121 37.8604C33.6412 35.5895 32.4644 32.6967 32.4644 28.9744C32.4644 25.2615 33.6514 22.3839 35.9469 20.13L35.9469 20.1299C38.2752 17.8435 41.1188 16.6917 44.6451 16.6917H44.7347C47.7707 16.7111 50.2205 17.722 52.2433 19.7177L52.2433 19.7178C54.1411 21.5901 55.2687 24.3958 55.2963 28.5132H37.4068H34.4113L34.9471 31.4603C35.3786 33.8342 36.4653 35.8633 38.2664 37.3838L38.2665 37.3839C40.0507 38.89 42.1851 39.6302 44.5433 39.6302ZM52.8544 25.304C52.8544 23.4689 52.0506 21.8766 50.8343 20.5687L39.1735 19.9406C37.5534 21.0285 36.3629 22.5237 35.6071 24.3465L34.1736 27.804H37.9165H50.3544H52.8544V25.304ZM50.8342 20.5685C49.2495 18.8643 46.9239 18.3182 44.5433 18.3182L50.8342 20.5685ZM44.5431 18.3182C42.5962 18.3182 40.7838 18.8593 39.1736 19.9406L44.5431 18.3182Z" fill="#F2F2F2" stroke="#F2F2F2" stroke-width="5"/>
<mask id="path-3-inside-1_115_119" fill="white">
<path d="M76.6742 39.6156C72.0037 41.3775 67.5363 40.2326 64.7701 36.6473L83.8646 24.8733C80.9671 17.9074 74.0583 14.8999 67.3366 17.4306C60.1318 20.1513 56.9309 27.401 59.7293 34.8431C62.5363 42.2769 69.9397 45.5873 77.7634 42.642C81.7218 41.1479 84.6106 38.4284 85.8465 34.9119L83.1102 33.4334C82.0829 36.3284 79.7766 38.4496 76.6743 39.6156H76.6742ZM68.4334 20.3379C73.053 18.6017 77.5163 20.4604 79.7743 24.2868L63.3798 34.396C63.1994 34.0742 63.0784 33.7437 62.9316 33.3622C60.7981 27.6829 63.0848 22.359 68.4332 20.3379H68.4334Z"/>
</mask>
<path d="M76.6742 39.6156C72.0037 41.3775 67.5363 40.2326 64.7701 36.6473L83.8646 24.8733C80.9671 17.9074 74.0583 14.8999 67.3366 17.4306C60.1318 20.1513 56.9309 27.401 59.7293 34.8431C62.5363 42.2769 69.9397 45.5873 77.7634 42.642C81.7218 41.1479 84.6106 38.4284 85.8465 34.9119L83.1102 33.4334C82.0829 36.3284 79.7766 38.4496 76.6743 39.6156H76.6742ZM68.4334 20.3379C73.053 18.6017 77.5163 20.4604 79.7743 24.2868L63.3798 34.396C63.1994 34.0742 63.0784 33.7437 62.9316 33.3622C60.7981 27.6829 63.0848 22.359 68.4332 20.3379H68.4334Z" fill="#F2F2F2"/>
<path d="M76.6742 39.6156V34.6156H75.7624L74.9094 34.9374L76.6742 39.6156ZM64.7701 36.6473L62.1458 32.3914L57.4196 35.3056L60.8114 39.7017L64.7701 36.6473ZM83.8646 24.8733L86.4889 29.1293L90.119 26.8908L88.4811 22.9531L83.8646 24.8733ZM67.3366 17.4306L65.5748 12.7513L65.5702 12.753L67.3366 17.4306ZM59.7293 34.8431L55.0493 36.603L55.0517 36.6094L59.7293 34.8431ZM77.7634 42.642L79.5249 47.3214L79.5291 47.3199L77.7634 42.642ZM85.8465 34.9119L90.5637 36.5697L91.9791 32.5422L88.2233 30.5129L85.8465 34.9119ZM83.1102 33.4334L85.487 29.0344L80.3504 26.259L78.398 31.7614L83.1102 33.4334ZM76.6743 39.6156V44.6156H77.5829L78.4334 44.296L76.6743 39.6156ZM68.4334 20.3379V25.3379H69.3419L70.1924 25.0183L68.4334 20.3379ZM79.7743 24.2868L82.3986 28.5428L86.5726 25.969L84.0804 21.7458L79.7743 24.2868ZM63.3798 34.396L59.0183 36.8409L61.5671 41.3878L66.004 38.6519L63.3798 34.396ZM62.9316 33.3622L58.2509 35.1205L58.2579 35.1391L58.2651 35.1578L62.9316 33.3622ZM68.4332 20.3379V15.3379H67.5201L66.6658 15.6607L68.4332 20.3379ZM74.9094 34.9374C72.0562 36.0137 70.0013 35.2424 68.7287 33.593L60.8114 39.7017C65.0712 45.2228 71.9511 46.7412 78.4389 44.2938L74.9094 34.9374ZM67.3943 40.9033L86.4889 29.1293L81.2403 20.6174L62.1458 32.3914L67.3943 40.9033ZM88.4811 22.9531C84.5886 13.5949 74.9151 9.23462 65.5748 12.7513L69.0984 22.11C73.2015 20.5651 77.3456 22.2199 79.248 26.7936L88.4811 22.9531ZM65.5702 12.753C55.6796 16.4879 51.3198 26.6851 55.0493 36.603L64.4094 33.0833C62.5419 28.117 64.584 23.8146 69.1029 22.1082L65.5702 12.753ZM55.0517 36.6094C56.8956 41.4927 60.3593 45.2495 64.8639 47.2168C69.3606 49.1806 74.5261 49.2033 79.5249 47.3214L76.0018 37.9626C73.177 39.0261 70.7289 38.8661 68.8662 38.0526C67.0115 37.2426 65.37 35.6274 64.407 33.0769L55.0517 36.6094ZM79.5291 47.3199C84.6128 45.401 88.7541 41.7185 90.5637 36.5697L81.1293 33.254C80.4671 35.1383 78.8308 36.8948 75.9976 37.9642L79.5291 47.3199ZM88.2233 30.5129L85.487 29.0344L80.7333 37.8323L83.4697 39.3108L88.2233 30.5129ZM78.398 31.7614C77.9464 33.034 76.8878 34.1939 74.9152 34.9353L78.4334 44.296C82.6655 42.7054 86.2195 39.6227 87.8223 35.1054L78.398 31.7614ZM76.6743 34.6156H76.6742V44.6156H76.6743V34.6156ZM70.1924 25.0183C72.4335 24.176 74.386 24.9941 75.4681 26.8279L84.0804 21.7458C80.6467 15.9268 73.6726 13.0274 66.6743 15.6576L70.1924 25.0183ZM77.15 20.0309L60.7555 30.14L66.004 38.6519L82.3986 28.5428L77.15 20.0309ZM67.7412 31.9511C67.7753 32.0118 67.7825 32.0361 67.7576 31.9763C67.7446 31.9451 67.7268 31.9008 67.6993 31.83C67.6671 31.747 67.6445 31.6874 67.598 31.5665L58.2651 35.1578C58.3605 35.4056 58.6212 36.1326 59.0183 36.8409L67.7412 31.9511ZM67.6122 31.6039C66.9382 29.8096 67.0688 28.3989 67.4792 27.4319C67.8809 26.4856 68.7089 25.5788 70.2006 25.0151L66.6658 15.6607C62.8092 17.1181 59.8196 19.8838 58.2742 23.5246C56.7376 27.1446 56.7915 31.2355 58.2509 35.1205L67.6122 31.6039ZM68.4332 25.3379H68.4334V15.3379H68.4332V25.3379Z" fill="#F2F2F2" mask="url(#path-3-inside-1_115_119)"/>
<mask id="path-5-inside-2_115_119" fill="white">
<path fill-rule="evenodd" clip-rule="evenodd" d="M97.7018 15.2812C93.0631 15.2812 89.4439 17.1673 87.5068 20.4297V15.4851H84.0405V42.298H87.6598V28.229C87.6598 22.112 91.279 18.5437 97.0393 18.5437C102.137 18.5437 105.093 21.4493 105.093 27.1076V42.2982H108.713V26.7508C108.713 19.0536 104.227 15.2814 97.702 15.2814L97.7018 15.2812ZM109.981 42.298H113.6V15.4851H109.981V42.298Z"/>
</mask>
<path fill-rule="evenodd" clip-rule="evenodd" d="M97.7018 15.2812C93.0631 15.2812 89.4439 17.1673 87.5068 20.4297V15.4851H84.0405V42.298H87.6598V28.229C87.6598 22.112 91.279 18.5437 97.0393 18.5437C102.137 18.5437 105.093 21.4493 105.093 27.1076V42.2982H108.713V26.7508C108.713 19.0536 104.227 15.2814 97.702 15.2814L97.7018 15.2812ZM109.981 42.298H113.6V15.4851H109.981V42.298Z" fill="#F2F2F2"/>
<path d="M97.7018 15.2812L101.065 11.5815L99.6348 10.2812H97.7018V15.2812ZM87.5068 20.4297H82.5068V38.6436L91.806 22.9824L87.5068 20.4297ZM87.5068 15.4851H92.5068V10.4851H87.5068V15.4851ZM84.0405 15.4851V10.4851H79.0405V15.4851H84.0405ZM84.0405 42.298H79.0405V47.298H84.0405V42.298ZM87.6598 42.298V47.298H92.6598V42.298H87.6598ZM105.093 42.2982H100.093V47.2982H105.093V42.2982ZM108.713 42.2982V47.2982H113.713V42.2982H108.713ZM97.702 15.2814L94.3386 18.9811L95.7689 20.2814H97.702V15.2814ZM109.981 42.298H104.981V47.298H109.981V42.298ZM113.6 42.298V47.298H118.6V42.298H113.6ZM113.6 15.4851H118.6V10.4851H113.6V15.4851ZM109.981 15.4851V10.4851H104.981V15.4851H109.981ZM97.7018 10.2812C91.6696 10.2812 86.2201 12.8034 83.2076 17.8769L91.806 22.9824C92.6677 21.5313 94.4566 20.2812 97.7018 20.2812V10.2812ZM92.5068 20.4297V15.4851H82.5068V20.4297H92.5068ZM87.5068 10.4851H84.0405V20.4851H87.5068V10.4851ZM79.0405 15.4851V42.298H89.0405V15.4851H79.0405ZM84.0405 47.298H87.6598V37.298H84.0405V47.298ZM92.6598 42.298V28.229H82.6598V42.298H92.6598ZM92.6598 28.229C92.6598 26.1548 93.2558 25.1066 93.7591 24.5935C94.2532 24.0897 95.2033 23.5437 97.0393 23.5437V13.5437C93.1149 13.5437 89.3753 14.7819 86.6197 17.5914C83.8733 20.3917 82.6598 24.1861 82.6598 28.229H92.6598ZM97.0393 23.5437C98.6483 23.5437 99.1943 23.9825 99.371 24.1664C99.5769 24.381 100.093 25.1055 100.093 27.1076H110.093C110.093 23.4513 109.132 19.8939 106.585 17.2411C104.009 14.5578 100.528 13.5437 97.0393 13.5437V23.5437ZM100.093 27.1076V42.2982H110.093V27.1076H100.093ZM105.093 47.2982H108.713V37.2982H105.093V47.2982ZM113.713 42.2982V26.7508H103.713V42.2982H113.713ZM113.713 26.7508C113.713 21.9276 112.286 17.6389 109.16 14.5649C106.055 11.511 101.909 10.2814 97.702 10.2814V20.2814C100.02 20.2814 101.379 20.9379 102.148 21.6944C102.897 22.4308 103.713 23.8768 103.713 26.7508H113.713ZM101.065 11.5817L101.065 11.5815L94.3384 18.981L94.3386 18.9811L101.065 11.5817ZM109.981 47.298H113.6V37.298H109.981V47.298ZM118.6 42.298V15.4851H108.6V42.298H118.6ZM113.6 10.4851H109.981V20.4851H113.6V10.4851ZM104.981 15.4851V42.298H114.981V15.4851H104.981Z" fill="#F2F2F2" mask="url(#path-5-inside-2_115_119)"/>
<path d="M111.099 10.8053C111.099 10.4725 111.369 10.2027 111.702 10.2027C112.035 10.2027 112.305 10.4725 112.305 10.8053C112.305 11.1382 112.035 11.408 111.702 11.408C111.369 11.408 111.099 11.1382 111.099 10.8053Z" fill="#F2F2F2" stroke="#F2F2F2" stroke-width="5"/>
<path d="M45.0906 10.4521L52.5425 3" stroke="#F2F2F2" stroke-width="5" stroke-miterlimit="2.61313" stroke-linecap="round" stroke-linejoin="round"/>
</svg>
