<svg width="14" height="14" viewBox="0 0 14 14" fill="none" xmlns="http://www.w3.org/2000/svg">
<path d="M12.9275 0.337313L12.9981 0.333313L13.0848 0.338646L13.1448 0.349313L13.2268 0.372646L13.2981 0.403313L13.3648 0.441313L13.4248 0.48598L13.4794 0.53598L13.5141 0.575313L13.5688 0.652646L13.6034 0.716646C13.6346 0.783313 13.6546 0.853535 13.6635 0.927313L13.6668 0.99798C13.6668 1.0482 13.6614 1.09709 13.6508 1.14465L13.6274 1.22665L9.27278 13.278C9.19023 13.4577 9.05785 13.6099 8.89134 13.7166C8.72484 13.8234 8.53121 13.88 8.33345 13.88C8.15537 13.8803 7.98023 13.8347 7.82499 13.7474C7.66976 13.6602 7.5397 13.5343 7.44745 13.382L7.40412 13.2973L5.16945 8.82931L0.722784 6.60531C0.558251 6.53006 0.416359 6.41294 0.311299 6.26564C0.206239 6.11835 0.141693 5.94605 0.124117 5.76598L0.120117 5.66665C0.120117 5.29331 0.320784 4.95198 0.680784 4.75331L0.774117 4.70665L12.7854 0.369313L12.8561 0.349313L12.9275 0.337313Z" fill="#0084A7"/>
</svg>
