<svg width="33" height="32" viewBox="0 0 33 32" fill="none" xmlns="http://www.w3.org/2000/svg">
<path d="M30.0737 16.9307C30.0711 18.8907 30.0564 20.5547 29.9457 21.9213C29.8164 23.508 29.5511 24.8333 28.9591 25.9333C28.7004 26.4154 28.3725 26.857 27.9857 27.244C26.8751 28.3547 25.4617 28.8573 23.6697 29.0973C21.9191 29.3333 19.6737 29.3333 16.8111 29.3333H16.6697C13.8057 29.3333 11.5631 29.3333 9.81107 29.0973C8.02041 28.8573 6.60574 28.3547 5.49641 27.244C4.51241 26.26 4.00307 25.036 3.73374 23.5173C3.46707 22.024 3.41907 20.168 3.40974 17.8627C3.40707 17.276 3.40618 16.6551 3.40707 16V15.928C3.40707 13.064 3.40707 10.8213 3.64307 9.06933C3.88307 7.27867 4.38574 5.864 5.49641 4.75467C6.60707 3.64533 8.02041 3.14133 9.81107 2.90133C11.3684 2.692 13.3711 2.668 15.8097 2.66533C16.0566 2.66533 16.2933 2.76338 16.4678 2.93792C16.6424 3.11245 16.7404 3.34917 16.7404 3.596C16.7404 3.84283 16.6424 4.07955 16.4678 4.25408C16.2933 4.42861 16.0566 4.52667 15.8097 4.52667C13.3364 4.52933 11.4977 4.55067 10.0591 4.744C8.47374 4.95733 7.51774 5.36267 6.81107 6.06933C6.10441 6.776 5.70041 7.73333 5.48707 9.32C5.26974 10.9333 5.26707 13.0507 5.26707 16V17.0453L6.50974 15.96C7.05444 15.4834 7.7599 15.2316 8.48327 15.2557C9.20663 15.2797 9.89384 15.5777 10.4057 16.0893L15.7257 21.4093C16.1385 21.8223 16.6837 22.0764 17.2654 22.1269C17.8471 22.1774 18.428 22.021 18.9057 21.6853L19.2764 21.4253C19.9654 20.941 20.7984 20.7049 21.6391 20.7555C22.4798 20.8061 23.2785 21.1405 23.9044 21.704L27.4151 24.864C27.7684 24.1213 27.9791 23.1467 28.0911 21.7707C28.1964 20.4747 28.2111 18.9013 28.2124 16.9307C28.2124 16.6838 28.3105 16.4471 28.485 16.2726C28.6595 16.0981 28.8962 16 29.1431 16C29.3899 16 29.6266 16.0981 29.8012 16.2726C29.9757 16.4471 30.0737 16.6838 30.0737 16.9307Z" fill="#0084A7"/>
<path fill-rule="evenodd" clip-rule="evenodd" d="M24.0737 14.6667C21.2457 14.6667 19.8311 14.6667 18.9524 13.788C18.0737 12.9093 18.0737 11.4947 18.0737 8.66667C18.0737 5.83867 18.0737 4.424 18.9524 3.54533C19.8311 2.66667 21.2457 2.66667 24.0737 2.66667C26.9017 2.66667 28.3164 2.66667 29.1951 3.54533C30.0737 4.424 30.0737 5.83867 30.0737 8.66667C30.0737 11.4947 30.0737 12.9093 29.1951 13.788C28.3164 14.6667 26.9017 14.6667 24.0737 14.6667ZM27.0231 5.71733C27.2688 5.96312 27.4068 6.29645 27.4068 6.644C27.4068 6.99156 27.2688 7.32488 27.0231 7.57067L26.9457 7.648C26.9095 7.68438 26.8649 7.71149 26.816 7.72704C26.767 7.74259 26.715 7.74612 26.6644 7.73733C26.2553 7.65345 25.8797 7.45132 25.5844 7.156C25.2891 6.86067 25.0869 6.48515 25.0031 6.076C24.9943 6.02538 24.9978 5.97339 25.0134 5.92442C25.0289 5.87545 25.056 5.83095 25.0924 5.79467L25.1697 5.71733C25.4155 5.47161 25.7488 5.33356 26.0964 5.33356C26.444 5.33356 26.7773 5.47161 27.0231 5.71733ZM23.8737 10.72C23.7507 10.8528 23.6189 10.9771 23.4791 11.092C23.3541 11.1899 23.2186 11.2735 23.0751 11.3413C22.9551 11.3987 22.8244 11.4427 22.5671 11.528L21.2057 11.9813C21.1435 12.002 21.0768 12.0049 21.013 11.9898C20.9492 11.9747 20.8909 11.9422 20.8446 11.8958C20.7982 11.8495 20.7657 11.7912 20.7506 11.7274C20.7355 11.6636 20.7384 11.5969 20.7591 11.5347L21.2124 10.1747C21.2977 9.916 21.3417 9.78667 21.3991 9.66533C21.4675 9.52045 21.5506 9.38578 21.6484 9.26133C21.7311 9.15467 21.8271 9.05867 22.0204 8.86667L24.4191 6.468C24.4764 6.41067 24.5764 6.43734 24.6031 6.51467C24.734 6.88982 24.9479 7.23057 25.2289 7.51153C25.5098 7.79249 25.8506 8.00641 26.2257 8.13733C26.3031 8.164 26.3297 8.264 26.2724 8.32134L23.8737 10.72Z" fill="#0084A7"/>
</svg>
